<svg width="96" height="88" viewBox="0 0 96 88" fill="none" xmlns="http://www.w3.org/2000/svg">
<path d="M62 39.5018C62 31.494 55.7353 25 48 25C40.2647 25 34 31.4905 34 39.5018C34 47.5132 40.2682 54 48 54C55.7318 54 62 47.5097 62 39.5018Z" fill="white"/>
<path d="M84.6184 5.35599H84.6147V5.35962C76.877 1.43044 64.9505 -3.4742e-07 48.0036 -3.4742e-07C31.0567 -3.4742e-07 18.9049 1.45221 11.1817 5.46111C3.54193 9.42281 0.0906944 15.8907 0.00727371 25.9184C0.00363233 26.0379 0 26.1574 0 26.2805C0 34.8342 6.74595 50.265 16.1222 63.5593C25.4948 76.8497 37.4976 88 48.0036 88C51.4293 88 55.0184 86.8086 58.6259 84.7407C58.4006 84.8205 58.1753 84.8893 57.95 84.9436C58.1753 84.882 58.397 84.8168 58.6186 84.7335C66.0586 80.4783 73.5638 72.5041 79.8776 63.5484C89.2502 50.2578 96 34.8305 96 26.2732C96 16.0429 92.3417 9.3649 84.6111 5.35237L84.6184 5.35599ZM68.7759 51.7027C68.6851 51.8584 68.6014 52.0069 68.5105 52.1627H68.5071C62.4912 62.5995 54.3972 71.8015 48.0036 71.8015C42.6852 71.8015 36.6257 65.9674 31.3437 58.3226C30.3629 56.8088 29.3638 55.248 28.343 53.6511C28.3102 53.5968 28.274 53.5388 28.2412 53.4845C28.263 53.5243 28.2884 53.5604 28.3103 53.6004C28.2884 53.5641 28.263 53.528 28.2412 53.4916H28.2375C22.2761 43.4894 17.924 32.0167 17.924 26.2841C17.924 16.4302 27.3621 14.2756 47.851 14.2647C47.9054 14.2647 47.9563 14.2647 48.0107 14.2647C68.6087 14.2647 78.0868 16.4013 78.0868 26.2841C78.0868 31.68 74.2142 42.1566 68.7832 51.7027H68.7759Z" fill="white"/>
</svg>
