<svg width="280" height="89" viewBox="0 0 280 89" fill="none" xmlns="http://www.w3.org/2000/svg">
<g clip-path="url(#clip0_1_212)">
<mask id="mask0_1_212" style="mask-type:luminance" maskUnits="userSpaceOnUse" x="0" y="0" width="280" height="89">
<path d="M0 89H279.5V0H0V89Z" fill="white"/>
</mask>
<g mask="url(#mask0_1_212)">
<path d="M175.844 21.7298C175.844 21.4807 175.595 21.272 175.225 21.272H169.304C168.971 21.272 168.56 21.3965 168.23 21.8909L161.936 31.366V15.0714C161.936 14.6209 161.562 14.2473 161.107 14.2473H156.096C155.638 14.2473 155.227 14.6209 155.227 15.0714V44.108C155.227 44.5658 155.638 44.9761 156.096 44.9761H161.107C161.565 44.9761 161.936 44.5658 161.936 44.108V34.677L167.9 44.401C168.234 44.8954 168.483 44.9761 168.934 44.9761H175.188C175.522 44.9761 175.723 44.727 175.723 44.4414C175.723 44.3168 175.723 44.1922 175.639 44.108L167.98 32.6077L175.683 22.1401C175.808 21.9753 175.848 21.8508 175.848 21.7262H175.844V21.7298ZM199.946 30.3331C199.946 25.081 198.619 20.9424 192.614 20.9424C189.966 20.9424 188.139 21.4772 185.865 23.0924V22.0997C185.865 21.6419 185.491 21.272 185.036 21.272H180.4C179.942 21.272 179.571 21.6456 179.571 22.0997V44.108C179.571 44.5658 179.982 44.9761 180.44 44.9761H185.451C185.909 44.9761 186.28 44.5658 186.28 44.108V27.8096C187.685 27.0661 188.968 26.4838 190.171 26.4838C192.695 26.4838 193.234 27.436 193.234 30.3331V44.108C193.234 44.5658 193.608 44.9761 194.063 44.9761H199.074C199.532 44.9761 199.943 44.5658 199.943 44.108V30.3331H199.946ZM176.259 57.4288C176.094 57.0186 175.885 56.601 175.43 56.601C173.442 56.601 171.373 57.2603 169.836 58.5861V57.7584C169.836 57.3006 169.462 56.9306 169.007 56.9306H164.081C163.623 56.9306 163.252 57.3409 163.252 57.7584V79.763C163.252 80.2208 163.663 80.631 164.122 80.631H169.132C169.591 80.631 169.961 80.2208 169.961 79.763V63.5892C171.491 62.7615 173.273 62.1387 175.305 62.1387H175.639C176.013 62.1387 176.259 61.7248 176.259 61.3549V57.4214V57.4288ZM257.133 21.7298C257.133 21.4807 256.884 21.272 256.513 21.272H250.593C250.259 21.272 249.849 21.3965 249.515 21.8909L243.221 31.366V15.0714C243.221 14.6209 242.847 14.2473 242.392 14.2473H237.381C236.923 14.2473 236.512 14.6209 236.512 15.0714V44.108C236.512 44.5658 236.923 44.9761 237.381 44.9761H242.392C242.85 44.9761 243.221 44.5658 243.221 44.108V34.677L249.185 44.401C249.519 44.8954 249.768 44.9761 250.219 44.9761H256.473C256.807 44.9761 257.008 44.727 257.008 44.4414C257.008 44.3168 257.008 44.1922 256.924 44.108L249.265 32.6077L256.972 22.1401C257.096 21.9753 257.137 21.8508 257.137 21.7262L257.133 21.7298ZM199.781 57.3921C199.781 57.1431 199.532 56.9342 199.161 56.9342H193.242C192.908 56.9342 192.497 57.0589 192.163 57.557L185.869 67.032V50.7373C185.869 50.2795 185.495 49.9096 185.04 49.9096H180.03C179.571 49.9096 179.16 50.3198 179.16 50.7373V79.774C179.16 80.2318 179.571 80.642 180.03 80.642H185.04C185.498 80.642 185.869 80.2318 185.869 79.774V70.3428L191.833 80.067C192.123 80.5614 192.412 80.6493 192.867 80.6493H199.121C199.455 80.6493 199.657 80.4002 199.657 80.1145C199.657 79.99 199.657 79.8655 199.572 79.7812L191.914 68.2809L199.62 57.8132C199.745 57.6484 199.785 57.524 199.785 57.4031L199.781 57.3921ZM245.044 65.9918C245.044 60.5749 243.716 56.601 237.712 56.601C235.063 56.601 233.237 57.1834 230.963 58.751V57.7584C230.963 57.3006 230.588 56.9306 230.133 56.9306H225.497C225.039 56.9306 224.668 57.3409 224.668 57.7584V79.763C224.668 80.2208 225.079 80.631 225.538 80.631H230.548C231.006 80.631 231.377 80.2208 231.377 79.763V63.4683C232.782 62.7248 234.066 62.1425 235.269 62.1425C237.792 62.1425 238.335 63.135 238.335 65.9918V79.7666C238.335 80.2244 238.709 80.6347 239.164 80.6347H244.174C244.633 80.6347 245.044 80.2244 245.044 79.7666V65.9918ZM141.733 25.2898C143.387 25.2898 144.784 25.5792 144.784 27.0296C144.784 30.5859 138.82 32.6553 136.957 32.7395C136.957 32.7395 136.187 25.2898 141.733 25.2898ZM151.453 25.9894C151.453 22.0998 148.181 20.9461 141.89 20.9461C134.558 20.9461 130.667 25.1654 130.667 31.8239V34.7172C130.667 42.7016 136.051 45.3497 141.062 45.3497C144.663 45.3497 146.901 45.0164 149.553 44.3571C150.257 44.1923 150.422 43.8993 150.422 43.2401V40.0975C150.422 39.6397 150.088 39.4382 149.637 39.4382C147.858 39.603 144.168 39.8118 141.56 39.8118C139.161 39.8118 137.709 38.8194 137.419 37.1639C142.514 36.5449 151.456 32.1974 151.456 25.9967L151.453 25.9894ZM273.202 30.3331C273.202 27.1467 271.834 25.4071 268.937 25.4071C266.538 25.4071 264.63 27.0223 264.63 33.1021C264.63 38.3542 265.338 40.0097 266.952 40.0097C268.196 40.0097 271.713 36.8672 273.206 33.5563V30.3295H273.202V30.3331ZM279.497 44.108C279.497 44.5658 279.163 44.9761 278.712 44.9761H273.951C273.415 44.9761 273.041 44.5658 273.041 44.108V39.8082C270.595 43.1595 267.697 45.4339 264.344 45.4339C259.829 45.4339 257.966 38.9402 257.966 34.677C257.966 25.8246 261.982 20.8179 269.688 20.8179C277.395 20.8179 279.504 24.2827 279.504 31.2012V44.108H279.5H279.497ZM211.79 22.0997C211.75 21.6419 211.416 21.272 210.961 21.272H205.911C205.452 21.272 205.081 21.6456 205.081 22.0997V44.1519C205.081 44.6097 205.456 44.9761 205.911 44.9761H210.961C211.42 44.9761 211.79 44.6024 211.79 44.1519V22.0997ZM132.405 19.2905V15.0311C132.405 14.5733 131.994 14.2473 131.536 14.2473H110.995C110.537 14.2473 110.167 14.5806 110.167 15.0311V19.2905C110.167 19.7484 110.541 20.0744 110.995 20.0744H117.744V44.1519C117.744 44.6097 118.119 44.9761 118.573 44.9761H123.998C124.457 44.9761 124.827 44.6024 124.827 44.1519V20.0744H131.536C131.994 20.0744 132.405 19.741 132.405 19.2905ZM125.073 73.7124C123.268 73.7124 119.743 65.6475 119.743 57.7877C119.743 56.9966 119.292 56.9342 118.885 56.9342H113.314C112.862 56.9342 112.657 57.2236 112.697 57.4653C114.909 73.9248 121.181 81.1768 125.073 81.1768C128.965 81.1768 135.237 73.9285 137.449 57.4653C137.489 57.2162 137.284 56.9342 136.832 56.9342H131.261C130.85 56.9342 130.402 57.0003 130.402 57.7877C130.402 65.6475 126.878 73.7124 125.073 73.7124Z" fill="white"/>
<path d="M62.9895 39.6543C62.9895 31.7102 56.4899 25.2678 48.4644 25.2678C40.439 25.2678 33.9395 31.7066 33.9395 39.6543C33.9395 47.602 40.4427 54.0371 48.4644 54.0371C56.4862 54.0371 62.9895 47.5984 62.9895 39.6543Z" fill="white"/>
<path d="M85.4371 5.4169H85.4334V5.42059C77.6207 1.44669 65.5789 0 48.468 0C31.3571 0 19.0879 1.4687 11.2899 5.5231C3.5762 9.5299 0.0917013 16.0713 0.00730133 26.2129C0.00370133 26.3337 0 26.4546 0 26.5791C0 35.2301 6.81131 50.8362 16.2783 64.2814C25.7415 77.723 37.8604 89 48.468 89C51.9269 89 55.5508 87.795 59.1931 85.7037C58.9656 85.7843 58.7382 85.8538 58.5108 85.9088C58.7382 85.8465 58.962 85.7806 59.1857 85.6964C66.6976 81.3929 74.2756 73.3279 80.6504 64.2704C90.1137 50.8289 96.9287 35.2264 96.9287 26.5718C96.9287 16.2251 93.2351 9.47131 85.4298 5.41321L85.4371 5.4169ZM69.4413 52.2902C69.3496 52.4477 69.2652 52.5979 69.1735 52.7554H69.1698C63.0957 63.3108 54.9236 72.6174 48.468 72.6174C43.0982 72.6174 36.9801 66.717 31.6469 58.9854C30.6566 57.4544 29.6479 55.8759 28.6172 54.2607C28.5842 54.2057 28.5475 54.1471 28.5145 54.0922C28.5365 54.1325 28.5622 54.1691 28.5842 54.2094C28.5622 54.1728 28.5365 54.1362 28.5145 54.0995H28.5108C22.4917 43.9836 18.0976 32.3806 18.0976 26.5828C18.0976 16.617 27.6268 14.4378 48.314 14.4268C48.369 14.4268 48.4203 14.4268 48.4754 14.4268C69.2725 14.4268 78.8422 16.5877 78.8422 26.5828C78.8422 32.04 74.9321 42.6357 69.4486 52.2902H69.4413Z" fill="white"/>
<path d="M208.272 18.3383C210.011 18.3383 212.289 16.0235 212.289 14.3644C212.289 12.8335 211.295 11.0132 208.272 11.0132C205.25 11.0132 204.465 12.8371 204.465 14.3644C204.465 16.0162 206.702 18.3383 208.272 18.3383Z" fill="white"/>
<path d="M157.904 75.1079C156.125 75.2727 152.435 75.4815 149.828 75.4815C147.425 75.4815 145.976 74.489 145.686 72.8335C150.781 72.2108 159.724 67.8671 159.724 61.6664C159.724 57.7804 156.452 56.623 150.154 56.623C142.822 56.623 138.93 60.8423 138.93 67.5008V70.3942C138.93 78.3786 144.315 81.0266 149.325 81.0266C152.931 81.0266 155.164 80.6933 157.816 80.0341C158.521 79.8692 158.686 79.5762 158.686 78.917V75.7745C158.686 75.3167 158.352 75.1152 157.901 75.1152H157.904V75.1079ZM150.011 60.9595C151.665 60.9595 153.063 61.2488 153.063 62.6992C153.063 66.2555 147.099 68.3249 145.235 68.4091C145.235 68.4091 144.469 60.9595 150.011 60.9595Z" fill="white"/>
<path d="M219.357 75.1079C217.578 75.2727 213.888 75.4815 211.28 75.4815C208.881 75.4815 207.429 74.489 207.139 72.8335C212.234 72.2108 221.176 67.8671 221.176 61.6664C221.176 57.7804 217.905 56.623 211.607 56.623C204.274 56.623 200.383 60.8423 200.383 67.5008V70.3942C200.383 78.3786 205.767 81.0266 210.778 81.0266C214.383 81.0266 216.617 80.6933 219.269 80.0341C219.973 79.8692 220.138 79.5762 220.138 78.917V75.7745C220.138 75.3167 219.805 75.1152 219.353 75.1152H219.357V75.1079ZM211.464 60.9595C213.118 60.9595 214.515 61.2488 214.515 62.6992C214.515 66.2555 208.551 68.3249 206.688 68.4091C206.688 68.4091 205.921 60.9595 211.464 60.9595Z" fill="white"/>
<path d="M233.204 38.4017C233.204 36.1676 232.459 34.0177 229.018 32.0326L223.883 29.099C223.054 28.6009 222.6 28.2711 222.6 27.6485C222.6 26.6962 223.179 26.4473 224.797 26.4473C228.813 26.4473 230.761 26.9819 231.795 26.9819C232.206 26.9819 232.499 26.6926 232.499 26.1981V22.8469C232.499 22.3488 232.21 22.0192 231.714 21.8946C229.602 21.3599 227.614 20.9461 224.342 20.9461C218.627 20.9461 215.851 23.1802 215.851 27.3555C215.851 30.0475 217.219 32.1535 219.533 33.4794L224.918 36.5816C226.077 37.2408 226.447 37.6986 226.447 38.3176C226.447 39.3944 225.989 39.9328 224.001 39.9328C222.673 39.9328 219.199 39.6435 216.962 39.3504H216.797C216.298 39.3504 216.012 39.7239 216.012 40.1341V43.4854C216.012 43.9835 216.302 44.3132 216.797 44.4377C218.91 45.0201 222.057 45.3459 224.331 45.3459C230.376 45.3459 233.193 42.2878 233.193 38.3945L233.204 38.4017Z" fill="white"/>
</g>
</g>
<defs>
<clipPath id="clip0_1_212">
<rect width="280" height="89" fill="white"/>
</clipPath>
</defs>
</svg>
